<svg
    className="icon"
    viewBox="0 0 1024 1024"
    version="1.1"
    xmlns="http://www.w3.org/2000/svg"
    width="200"
    height="200"
>
    <path
    d="M845.04381 923.550476H174.08c-27.794286 0-50.224762-22.430476-50.224762-50.224762V609.52381c0-27.794286 22.430476-50.224762 50.224762-50.224762h670.47619c27.794286 0 50.224762 22.430476 50.224762 50.224762v263.801904c0.487619 27.794286-22.430476 50.224762-49.737142 50.224762zM174.08 598.308571c-5.851429 0-11.215238 4.87619-11.215238 11.215239v263.801904c0 5.851429 4.87619 11.215238 11.215238 11.215238h670.47619c5.851429 0 11.215238-4.87619 11.215239-11.215238V609.52381c0-5.851429-4.87619-11.215238-11.215239-11.215239H174.08z"
    fill="#4c5b70"
    ></path>
    <path
    d="M707.047619 598.308571H312.07619c-27.794286 0-50.224762-22.430476-50.224761-50.224761V352.548571C261.851429 325.241905 284.281905 302.32381 312.07619 302.32381h394.971429c27.794286 0 50.224762 22.430476 50.224762 50.224761v195.535239c0 27.794286-22.430476 50.224762-50.224762 50.224761zM312.07619 341.333333c-5.851429 0-11.215238 4.87619-11.215238 11.215238v195.535239c0 5.851429 4.87619 11.215238 11.215238 11.215238h394.971429c5.851429 0 11.215238-4.87619 11.215238-11.215238V352.548571c0-5.851429-4.87619-11.215238-11.215238-11.215238H312.07619z"
    fill="#4c5b70"
    ></path>
    <path
    d="M512.487619 326.704762c-10.727619 0-19.504762-8.777143-19.504762-19.504762V216.990476c0-10.727619 8.777143-19.504762 19.504762-19.504762s19.504762 8.777143 19.504762 19.504762V307.2c0 10.727619-8.777143 19.504762-19.504762 19.504762z"
    fill="#4c5b70"
    ></path>
    <path
    d="M510.537143 224.304762l-10.24-6.826667c-26.819048-18.041905-37.059048-46.32381-29.744762-79.969524 4.87619-22.430476 16.091429-39.984762 17.554286-41.935238 1.462857-2.438095 3.413333-4.388571 5.851428-5.851428 3.413333-7.314286 11.702857-12.190476 20.48-10.727619 10.24 1.462857 17.066667 10.24 16.579048 19.992381 1.462857 5.851429 11.702857 19.504762 17.066667 27.306666 4.388571 6.339048 8.777143 12.190476 11.702857 17.554286 5.36381 9.264762 6.826667 19.017143 3.900952 29.257143-4.388571 16.091429-18.529524 31.207619-42.910476 44.860952l-10.24 6.339048z m-0.487619-84.358095c-3.413333 11.702857-4.87619 25.35619 3.413333 36.571428 8.777143-6.826667 12.190476-11.702857 12.678095-13.165714-2.438095-3.900952-5.851429-8.777143-9.752381-14.140952-1.950476-3.413333-4.388571-6.339048-6.339047-9.264762zM875.76381 741.180952c-42.422857 0-64.365714-14.628571-83.870477-27.794285-17.554286-11.702857-31.695238-20.967619-62.415238-20.967619s-44.860952 9.264762-62.415238 20.967619c-19.504762 13.165714-41.447619 27.794286-83.870476 27.794285s-64.365714-14.628571-83.870476-27.794285c-17.554286-11.702857-31.695238-20.967619-62.415238-20.967619-30.72 0-44.860952 9.264762-62.415238 20.967619-19.504762 13.165714-41.447619 27.794286-83.870477 27.794285s-64.365714-14.628571-83.870476-27.794285c-17.554286-11.702857-31.695238-20.967619-62.415238-20.967619-10.727619 0-19.504762-8.777143-19.504762-19.504762s8.777143-19.504762 19.504762-19.504762c42.422857 0 64.365714 14.628571 83.870476 27.794286 17.554286 11.702857 31.695238 20.967619 62.415238 20.967619 30.72 0 44.860952-9.264762 62.415238-20.967619 19.504762-13.165714 41.447619-27.794286 83.870477-27.794286s64.365714 14.628571 83.870476 27.794286c17.554286 11.702857 31.695238 20.967619 62.415238 20.967619 30.72 0 44.860952-9.264762 62.415238-20.967619 19.504762-13.165714 41.447619-27.794286 83.870476-27.794286s64.365714 14.628571 83.870476 27.794286c17.554286 11.702857 31.695238 20.967619 62.415239 20.967619 10.727619 0 19.504762 8.777143 19.504761 19.504761s-8.777143 19.504762-19.504761 19.504762zM737.767619 451.047619c-30.232381 0-45.83619-13.653333-58.514286-24.380952-10.24-8.777143-17.554286-14.628571-33.158095-14.628572-15.60381 0-22.430476 5.851429-33.158095 14.628572-12.678095 10.727619-28.281905 24.380952-58.514286 24.380952s-45.83619-13.653333-58.514286-24.380952c-10.24-8.777143-17.554286-14.628571-33.158095-14.628572-15.60381 0-22.430476 5.851429-33.158095 14.628572-12.678095 10.727619-28.281905 24.380952-58.514286 24.380952s-45.83619-13.653333-58.514285-24.380952c-10.24-8.777143-17.554286-14.628571-33.158096-14.628572-10.727619 0-19.504762-8.777143-19.504762-19.504762s8.777143-19.504762 19.504762-19.504762c30.232381 0 45.83619 13.653333 58.514286 24.380953 10.24 8.777143 17.554286 14.628571 33.158095 14.628571 15.60381 0 22.430476-5.851429 33.158095-14.628571 12.678095-10.727619 28.281905-24.380952 58.514286-24.380953s45.83619 13.653333 58.514286 24.380953c10.24 8.777143 17.554286 14.628571 33.158095 14.628571s22.430476-5.851429 33.158095-14.628571c12.678095-10.727619 28.281905-24.380952 58.514286-24.380953s45.83619 13.653333 58.514286 24.380953c10.24 8.777143 17.554286 14.628571 33.158095 14.628571 10.727619 0 19.504762 8.777143 19.504762 19.504762s-8.777143 19.504762-19.504762 19.504762z"
    fill="#4c5b70"
    ></path>
</svg>